<svg width="122" height="28" viewBox="0 0 122 28" fill="none" xmlns="http://www.w3.org/2000/svg">
  <path
    fill-rule="evenodd"
    clip-rule="evenodd"
    d="M17.5632 21.8013C17.3415 22.3208 17.0366 22.7826 16.6467 23.187C15.6587 24.0988 14.2034 24.554 12.2807 24.554H3.50977V14.9854H12.0474C13.7358 14.9854 15.1325 15.4035 16.2378 16.2384C17.3415 17.0736 17.8944 18.3403 17.8944 20.0356C17.8944 20.694 17.7836 21.2824 17.5632 21.8013ZM3.50977 3.44238H11.852C13.4114 3.44238 14.6259 3.81639 15.497 4.56289C16.3671 5.30969 16.8026 6.34121 16.8026 7.65713C16.8026 9.07527 16.3282 10.1699 15.3797 10.9417C14.4309 11.7137 13.0996 12.0995 11.3841 12.0995H3.50977V3.44238ZM16.4181 13.2765C16.4181 13.2765 16.3659 13.2708 16.3659 13.2224C16.3659 13.1779 16.4181 13.1626 16.4181 13.1626C20.0844 11.5184 20.31 8.98603 20.31 7.46686C20.31 6.5054 20.1538 5.63864 19.8427 4.86628C19.5303 4.09423 19.088 3.41717 18.5167 2.83452C16.9829 1.26545 14.7485 0.480469 11.8116 0.480469H0V27.6293H12.4132C13.9173 27.6293 15.26 27.4015 16.4403 26.9463C17.6206 26.4905 18.5994 25.8579 19.3781 25.0477C20.0263 24.3896 20.5254 23.6235 20.8758 22.7502C21.2258 21.8771 21.4014 20.9084 21.4014 19.8453C21.4014 18.9341 21.2465 18.0132 20.9353 17.2889C19.5819 14.1418 17.1956 13.4539 16.4181 13.2765Z"
    fill="black"
  />
  <path
    fill-rule="evenodd"
    clip-rule="evenodd"
    d="M85.2217 24.7765C79.5476 24.7765 74.9318 19.9421 74.9318 14.0001C74.9318 8.0579 79.5476 3.22352 85.2217 3.22352C89.5492 3.22352 93.2584 6.03756 94.7767 10.0091H98.2726C96.5972 4.22828 91.3817 0 85.2217 0C77.7126 0 71.6035 6.28018 71.6035 14.0001C71.6035 21.7195 77.7126 28 85.2217 28C92.5716 28 98.5763 21.9817 98.8272 14.4872H95.4999C95.2554 20.2043 90.7394 24.7765 85.2217 24.7765Z"
    fill="black"
  />
  <path
    fill-rule="evenodd"
    clip-rule="evenodd"
    d="M55.2833 24.7766C49.6116 24.7766 44.998 19.9422 44.998 14.0003C44.998 8.05801 49.6116 3.22363 55.2833 3.22363C60.9544 3.22363 65.5682 8.05801 65.5682 14.0003C65.5682 19.9422 60.9544 24.7766 55.2833 24.7766ZM55.2819 0C47.7765 0 41.6699 6.28018 41.6699 14.0002C41.6699 21.7195 47.7765 28 55.2819 28C62.7874 28 68.8937 21.7195 68.8937 14.0002C68.8937 6.28018 62.7874 0 55.2819 0Z"
    fill="black"
  />
  <path fill-rule="evenodd" clip-rule="evenodd" d="M28.0377 0.480469H24.5371V27.6293H42.6229V24.4867H28.0377V0.480469Z" fill="black" />
  <path
    fill-rule="evenodd"
    clip-rule="evenodd"
    d="M116.367 10.1086H112.417L121.304 0.480469H116.92L108.037 10.1086H105.519V0.480469H102.053V27.6293H105.519V13.4759H116.367C117.116 13.4759 117.725 14.0693 117.725 14.7987V27.6224H121.182V14.7987C121.182 12.2126 119.022 10.1086 116.367 10.1086Z"
    fill="black"
  />
</svg>
